#define net_up_width 14
#define net_up_height 14
static unsigned char net_up_bits[] = {
   0x00, 0x00, 0x00, 0x00, 0x80, 0x00, 0xc0, 0x01, 0xe0, 0x03, 0xf0, 0x07,
   0xc0, 0x01, 0xc0, 0x01, 0xc0, 0x01, 0xc0, 0x01, 0xc0, 0x01, 0x00, 0x00,
   0x00, 0x00, 0x00, 0x00 };
