#define net_down_width 14
#define net_down_height 14
static unsigned char net_down_bits[] = {
   0x00, 0x00, 0x00, 0x00, 0xc0, 0x01, 0xc0, 0x01, 0xc0, 0x01, 0xc0, 0x01,
   0xc0, 0x01, 0xf0, 0x07, 0xe0, 0x03, 0xc0, 0x01, 0x80, 0x00, 0x00, 0x00,
   0x00, 0x00, 0x00, 0x00 };
